<?xml version="1.0" standalone="no"?>
<!DOCTYPE svg PUBLIC "-//W3C//DTD SVG 20010904//EN"
 "http://www.w3.org/TR/2001/REC-SVG-20010904/DTD/svg10.dtd">
<svg version="1.0" xmlns="http://www.w3.org/2000/svg"
 width="270.000000pt" height="270.000000pt" viewBox="0 0 270.000000 270.000000"
 preserveAspectRatio="xMidYMid meet">
<metadata>
Created by potrace 1.11, written by Peter Selinger 2001-2013
</metadata>
<g transform="translate(0.000000,270.000000) scale(0.100000,-0.100000)"
fill="#000000" stroke="none">
<path d="M0 1350 l0 -1350 1350 0 1350 0 0 1350 0 1350 -1350 0 -1350 0 0
-1350z m236 160 c55 -19 60 -20 71 -3 24 31 13 -7 -12 -47 -14 -22 -25 -41
-25 -44 0 -2 23 -6 51 -8 127 -13 168 -119 79 -208 -58 -58 -111 -82 -150 -69
-17 6 -41 9 -53 6 -12 -3 -33 -8 -47 -12 -20 -5 -20 -3 5 8 l30 15 -28 11
c-54 21 -102 24 -116 7 -20 -23 3 -46 48 -48 l36 -1 -33 -4 c-40 -5 -82 19
-82 47 0 30 49 62 90 59 20 -2 41 0 48 5 21 13 13 26 -17 26 -91 0 -144 67
-90 116 11 10 27 34 35 53 11 26 87 111 99 111 1 0 28 -9 61 -20z m2300 -110
c15 0 24 -6 24 -15 0 -9 -9 -15 -25 -15 -25 0 -25 0 -25 -94 0 -96 12 -127 42
-111 7 3 0 -5 -15 -18 l-29 -24 -38 21 c-31 16 -36 24 -29 38 5 9 9 55 9 102
0 70 -3 86 -15 86 -22 0 -19 7 28 63 l42 51 3 -42 c3 -37 6 -42 28 -42z
m-1050 35 c6 -15 -37 -89 -59 -102 -6 -3 -7 -1 -3 5 5 8 -2 12 -19 12 -15 0
-35 5 -46 10 -17 10 -19 7 -19 -28 0 -24 6 -45 16 -53 13 -11 19 -8 40 17 14
16 23 24 20 18 -3 -6 8 -18 25 -28 26 -15 29 -23 29 -65 0 -44 -3 -50 -30 -61
-16 -7 -34 -18 -40 -25 -8 -10 -19 -10 -45 -2 -26 7 -42 7 -61 -2 -15 -6 -29
-9 -32 -6 -3 3 0 5 6 5 11 0 72 76 72 89 0 4 -13 15 -30 24 -27 16 -30 23 -30
68 0 38 4 51 18 56 9 3 26 14 38 25 17 15 26 17 48 8 36 -13 73 -13 82 1 3 6
1 15 -6 19 -13 8 -5 30 11 30 5 0 12 -7 15 -15z m910 0 c6 -15 -37 -89 -59
-102 -6 -3 -7 -1 -3 5 5 8 -2 12 -19 12 -15 0 -35 5 -46 10 -17 10 -19 7 -19
-28 0 -24 6 -45 16 -53 13 -11 19 -8 40 17 14 16 23 24 20 18 -3 -6 8 -18 25
-28 26 -15 29 -23 29 -65 0 -44 -3 -50 -30 -61 -16 -7 -34 -18 -40 -25 -8 -10
-19 -10 -45 -2 -26 7 -42 7 -61 -2 -15 -6 -29 -9 -32 -6 -3 3 0 5 6 5 11 0 72
76 72 89 0 4 -13 15 -30 24 -27 16 -30 23 -30 68 0 38 4 51 18 56 9 3 26 14
38 25 17 15 26 17 48 8 36 -13 73 -13 82 1 3 6 1 15 -6 19 -13 8 -5 30 11 30
5 0 12 -7 15 -15z m-1725 -39 c36 0 36 -1 22 -22 -10 -16 -13 -46 -11 -110 3
-82 5 -89 23 -87 16 1 13 -4 -14 -28 -33 -27 -36 -28 -53 -12 -10 9 -18 23
-18 30 0 10 -14 5 -42 -17 l-43 -31 -24 27 c-29 35 -25 89 12 137 19 25 23 37
15 51 -5 10 -8 20 -5 22 2 3 10 -8 16 -23 6 -15 25 -36 41 -45 l30 -17 0 39
c0 36 -2 39 -44 53 -25 8 -47 13 -50 9 -3 -3 -6 0 -6 6 0 7 10 12 23 12 12 0
29 5 37 10 8 5 24 6 35 2 11 -4 36 -7 56 -6z m169 -30 c-13 -13 -13 -176 0
-196 7 -12 13 -11 34 10 24 21 26 31 26 101 0 47 -4 81 -11 85 -8 4 -4 13 12
25 22 16 25 16 51 1 19 -11 24 -19 17 -28 -5 -7 -9 -51 -7 -101 3 -81 5 -88
23 -86 16 1 13 -4 -14 -28 -33 -27 -36 -28 -53 -12 -10 9 -18 25 -18 35 0 17
-6 14 -42 -16 l-42 -36 -21 20 c-16 17 -21 37 -25 118 -5 89 -7 97 -25 95 -16
-1 -13 4 14 27 33 28 35 29 63 12 18 -11 24 -20 18 -26z m371 30 c36 0 36 -1
22 -22 -10 -16 -13 -46 -11 -110 3 -82 5 -89 23 -87 16 1 13 -4 -14 -28 -33
-27 -36 -28 -53 -12 -10 9 -18 23 -18 30 0 10 -14 5 -42 -17 l-43 -31 -24 27
c-29 35 -25 89 12 137 19 25 23 37 15 51 -5 10 -8 20 -5 22 2 3 10 -8 16 -23
6 -15 25 -36 41 -45 l30 -17 0 39 c0 36 -2 39 -44 53 -25 8 -47 13 -50 9 -3
-3 -6 0 -6 6 0 7 10 12 23 12 12 0 29 5 37 10 8 5 24 6 35 2 11 -4 36 -7 56
-6z m409 -38 c0 -17 6 -14 42 16 39 34 43 35 59 20 10 -9 21 -25 24 -35 6 -18
10 -16 48 16 l41 35 21 -20 c17 -16 24 -17 34 -7 11 10 11 8 2 -11 -7 -13 -11
-57 -9 -110 3 -80 5 -87 23 -85 16 1 13 -5 -15 -28 l-35 -30 -17 22 c-14 17
-18 40 -18 113 0 107 -11 128 -47 94 -20 -19 -23 -31 -23 -99 0 -46 5 -81 11
-85 7 -4 0 -13 -17 -24 -25 -17 -29 -17 -51 -3 -17 11 -21 19 -14 26 13 13 14
176 1 197 -7 12 -13 11 -34 -10 -24 -21 -26 -31 -26 -101 0 -46 5 -81 11 -85
7 -4 0 -13 -17 -24 -25 -17 -29 -17 -51 -3 -17 12 -21 19 -13 28 6 8 10 50 8
102 -3 81 -5 88 -23 86 -16 -1 -13 4 14 28 33 27 36 28 53 12 10 -9 18 -25 18
-35z m501 38 c36 0 36 -1 22 -22 -10 -16 -13 -46 -11 -110 3 -82 5 -89 23 -87
16 1 13 -4 -14 -28 -33 -27 -36 -28 -53 -12 -10 9 -18 23 -18 30 0 10 -14 5
-42 -17 l-43 -31 -22 26 c-13 14 -23 37 -23 51 0 26 33 98 50 109 7 4 6 13 -1
26 -6 12 -9 23 -6 25 2 3 10 -8 16 -23 6 -15 25 -36 41 -45 l30 -17 0 39 c0
36 -2 39 -44 53 -25 8 -47 13 -50 9 -3 -3 -6 0 -6 6 0 7 10 12 23 12 12 0 29
5 37 10 8 5 24 6 35 2 11 -4 36 -7 56 -6z"/>
<path d="M124 1456 c-15 -12 -17 -18 -8 -33 15 -24 130 -26 144 -3 15 23 13
26 -29 38 -51 16 -83 15 -107 -2z"/>
<path d="M53 1354 c-3 -8 0 -21 6 -27 17 -17 143 -16 148 1 3 8 -11 12 -50 12
-36 0 -59 5 -67 15 -16 19 -29 19 -37 -1z"/>
<path d="M228 1344 c-18 -17 -5 -24 45 -24 94 0 128 -53 66 -104 -17 -14 -35
-26 -40 -26 -6 0 -7 -4 -4 -10 13 -21 54 -9 84 25 37 43 39 74 7 111 -20 24
-33 28 -87 32 -35 2 -67 0 -71 -4z"/>
<path d="M200 1253 c-14 -2 -31 -12 -37 -22 -11 -17 -6 -20 46 -33 53 -14 61
-14 85 1 27 16 40 37 30 52 -5 9 -74 10 -124 2z"/>
<path d="M1356 1223 l-26 -38 28 -6 c16 -3 34 -9 40 -13 18 -11 15 69 -2 83
-12 10 -19 5 -40 -26z"/>
<path d="M2266 1223 l-26 -38 28 -6 c16 -3 34 -9 40 -13 18 -11 15 69 -2 83
-12 10 -19 5 -40 -26z"/>
<path d="M544 1264 c-5 -25 -2 -47 10 -71 16 -33 18 -34 39 -20 16 11 22 24
22 53 0 32 -5 41 -32 57 l-32 18 -7 -37z"/>
<path d="M1084 1264 c-5 -25 -2 -47 10 -71 16 -33 18 -34 39 -20 16 11 22 24
22 53 0 32 -5 41 -32 57 l-32 18 -7 -37z"/>
<path d="M1994 1264 c-5 -25 -2 -47 10 -71 16 -33 18 -34 39 -20 16 11 22 24
22 53 0 32 -5 41 -32 57 l-32 18 -7 -37z"/>
</g>
</svg>
